<mxfile host="app.diagrams.net" modified="2023-05-09T17:30:35.773Z" agent="Mozilla/5.0 (Macintosh; Intel Mac OS X 10_15_7) AppleWebKit/537.36 (KHTML, like Gecko) Chrome/113.0.0.0 Safari/537.36" etag="CI5bx4X2UE7OOlcjmJrZ" version="21.2.9" type="device">
  <diagram name="Page-1" id="2YBvvXClWsGukQMizWep">
    <mxGraphModel dx="1306" dy="835" grid="1" gridSize="10" guides="1" tooltips="1" connect="1" arrows="1" fold="1" page="1" pageScale="1" pageWidth="850" pageHeight="1100" math="0" shadow="0">
      <root>
        <mxCell id="0" />
        <mxCell id="1" parent="0" />
        <mxCell id="k5DyvnG_jxrRPJMY_Sv5-1" value="Αρχική οθόνη Καθηγητή" style="shape=umlBoundary;whiteSpace=wrap;html=1;" parent="1" vertex="1">
          <mxGeometry x="280" y="140" width="100" height="80" as="geometry" />
        </mxCell>
        <mxCell id="k5DyvnG_jxrRPJMY_Sv5-2" value="Λίστα με διαθέσιμα μαθήματα" style="shape=umlBoundary;whiteSpace=wrap;html=1;" parent="1" vertex="1">
          <mxGeometry x="520" y="145" width="100" height="80" as="geometry" />
        </mxCell>
        <mxCell id="k5DyvnG_jxrRPJMY_Sv5-3" value="Λίστα&amp;nbsp; με στοιχεία μαθητών" style="shape=umlBoundary;whiteSpace=wrap;html=1;" parent="1" vertex="1">
          <mxGeometry x="720" y="145" width="100" height="90" as="geometry" />
        </mxCell>
        <mxCell id="k5DyvnG_jxrRPJMY_Sv5-4" value="Φόρμα για ανέβασμα αρχείου" style="shape=umlBoundary;whiteSpace=wrap;html=1;" parent="1" vertex="1">
          <mxGeometry x="890" y="150" width="100" height="80" as="geometry" />
        </mxCell>
        <mxCell id="k5DyvnG_jxrRPJMY_Sv5-5" value="Βαθμός" style="ellipse;shape=umlEntity;whiteSpace=wrap;html=1;" parent="1" vertex="1">
          <mxGeometry x="1100" y="130" width="80" height="80" as="geometry" />
        </mxCell>
        <mxCell id="k5DyvnG_jxrRPJMY_Sv5-7" value="Teacher&lt;br&gt;" style="shape=umlActor;verticalLabelPosition=bottom;verticalAlign=top;html=1;outlineConnect=0;" parent="1" vertex="1">
          <mxGeometry x="80" y="150" width="30" height="60" as="geometry" />
        </mxCell>
        <mxCell id="k5DyvnG_jxrRPJMY_Sv5-10" value="" style="endArrow=classic;html=1;rounded=0;" parent="1" edge="1">
          <mxGeometry width="50" height="50" relative="1" as="geometry">
            <mxPoint x="110" y="290" as="sourcePoint" />
            <mxPoint x="330" y="290" as="targetPoint" />
          </mxGeometry>
        </mxCell>
        <mxCell id="k5DyvnG_jxrRPJMY_Sv5-11" value="clicks&#39;Διόρθωση γραπτών&#39;" style="text;html=1;strokeColor=none;fillColor=none;align=center;verticalAlign=middle;whiteSpace=wrap;rounded=0;" parent="1" vertex="1">
          <mxGeometry x="170" y="250" width="60" height="30" as="geometry" />
        </mxCell>
        <mxCell id="k5DyvnG_jxrRPJMY_Sv5-12" value="" style="html=1;points=[];perimeter=orthogonalPerimeter;outlineConnect=0;targetShapes=umlLifeline;portConstraint=eastwest;newEdgeStyle={&quot;edgeStyle&quot;:&quot;elbowEdgeStyle&quot;,&quot;elbow&quot;:&quot;vertical&quot;,&quot;curved&quot;:0,&quot;rounded&quot;:0};" parent="1" vertex="1">
          <mxGeometry x="340" y="280" width="10" height="40" as="geometry" />
        </mxCell>
        <mxCell id="k5DyvnG_jxrRPJMY_Sv5-13" value="" style="html=1;points=[];perimeter=orthogonalPerimeter;outlineConnect=0;targetShapes=umlLifeline;portConstraint=eastwest;newEdgeStyle={&quot;edgeStyle&quot;:&quot;elbowEdgeStyle&quot;,&quot;elbow&quot;:&quot;vertical&quot;,&quot;curved&quot;:0,&quot;rounded&quot;:0};" parent="1" vertex="1">
          <mxGeometry x="560" y="280" width="10" height="170" as="geometry" />
        </mxCell>
        <mxCell id="k5DyvnG_jxrRPJMY_Sv5-15" value="" style="endArrow=classic;html=1;rounded=0;" parent="1" edge="1">
          <mxGeometry width="50" height="50" relative="1" as="geometry">
            <mxPoint x="100" y="430" as="sourcePoint" />
            <mxPoint x="550" y="430" as="targetPoint" />
          </mxGeometry>
        </mxCell>
        <mxCell id="k5DyvnG_jxrRPJMY_Sv5-16" value="selectCourse()" style="text;html=1;strokeColor=none;fillColor=none;align=center;verticalAlign=middle;whiteSpace=wrap;rounded=0;" parent="1" vertex="1">
          <mxGeometry x="210" y="390" width="50" height="30" as="geometry" />
        </mxCell>
        <mxCell id="k5DyvnG_jxrRPJMY_Sv5-17" value="" style="html=1;points=[];perimeter=orthogonalPerimeter;outlineConnect=0;targetShapes=umlLifeline;portConstraint=eastwest;newEdgeStyle={&quot;edgeStyle&quot;:&quot;elbowEdgeStyle&quot;,&quot;elbow&quot;:&quot;vertical&quot;,&quot;curved&quot;:0,&quot;rounded&quot;:0};" parent="1" vertex="1">
          <mxGeometry x="780" y="300" width="10" height="690" as="geometry" />
        </mxCell>
        <mxCell id="k5DyvnG_jxrRPJMY_Sv5-18" value="" style="endArrow=classic;html=1;rounded=0;" parent="1" source="k5DyvnG_jxrRPJMY_Sv5-13" target="k5DyvnG_jxrRPJMY_Sv5-17" edge="1">
          <mxGeometry width="50" height="50" relative="1" as="geometry">
            <mxPoint x="670" y="450" as="sourcePoint" />
            <mxPoint x="770" y="400" as="targetPoint" />
          </mxGeometry>
        </mxCell>
        <mxCell id="k5DyvnG_jxrRPJMY_Sv5-21" value="displayStudents()" style="text;html=1;align=center;verticalAlign=middle;resizable=0;points=[];autosize=1;strokeColor=none;fillColor=none;" parent="1" vertex="1">
          <mxGeometry x="600" y="320" width="120" height="30" as="geometry" />
        </mxCell>
        <mxCell id="k5DyvnG_jxrRPJMY_Sv5-23" value="" style="html=1;points=[];perimeter=orthogonalPerimeter;outlineConnect=0;targetShapes=umlLifeline;portConstraint=eastwest;newEdgeStyle={&quot;edgeStyle&quot;:&quot;elbowEdgeStyle&quot;,&quot;elbow&quot;:&quot;vertical&quot;,&quot;curved&quot;:0,&quot;rounded&quot;:0};" parent="1" vertex="1">
          <mxGeometry x="90" y="280" width="10" height="660" as="geometry" />
        </mxCell>
        <mxCell id="k5DyvnG_jxrRPJMY_Sv5-25" value="selectStudent()" style="text;html=1;align=center;verticalAlign=middle;resizable=0;points=[];autosize=1;strokeColor=none;fillColor=none;" parent="1" vertex="1">
          <mxGeometry x="180" y="430" width="100" height="30" as="geometry" />
        </mxCell>
        <mxCell id="k5DyvnG_jxrRPJMY_Sv5-27" value="" style="endArrow=classic;html=1;rounded=0;" parent="1" source="k5DyvnG_jxrRPJMY_Sv5-23" edge="1">
          <mxGeometry width="50" height="50" relative="1" as="geometry">
            <mxPoint x="420" y="510" as="sourcePoint" />
            <mxPoint x="770" y="460" as="targetPoint" />
          </mxGeometry>
        </mxCell>
        <mxCell id="k5DyvnG_jxrRPJMY_Sv5-28" value="" style="html=1;points=[];perimeter=orthogonalPerimeter;outlineConnect=0;targetShapes=umlLifeline;portConstraint=eastwest;newEdgeStyle={&quot;edgeStyle&quot;:&quot;elbowEdgeStyle&quot;,&quot;elbow&quot;:&quot;vertical&quot;,&quot;curved&quot;:0,&quot;rounded&quot;:0};" parent="1" vertex="1">
          <mxGeometry x="930" y="470" width="10" height="340" as="geometry" />
        </mxCell>
        <mxCell id="k5DyvnG_jxrRPJMY_Sv5-29" value="" style="endArrow=classic;html=1;rounded=0;entryX=0;entryY=0.088;entryDx=0;entryDy=0;entryPerimeter=0;" parent="1" target="k5DyvnG_jxrRPJMY_Sv5-28" edge="1">
          <mxGeometry width="50" height="50" relative="1" as="geometry">
            <mxPoint x="790" y="490" as="sourcePoint" />
            <mxPoint x="840" y="440" as="targetPoint" />
            <Array as="points">
              <mxPoint x="790" y="500" />
              <mxPoint x="810" y="500" />
            </Array>
          </mxGeometry>
        </mxCell>
        <mxCell id="k5DyvnG_jxrRPJMY_Sv5-30" value="displayUploadFile()" style="text;html=1;align=center;verticalAlign=middle;resizable=0;points=[];autosize=1;strokeColor=none;fillColor=none;" parent="1" vertex="1">
          <mxGeometry x="785" y="470" width="130" height="30" as="geometry" />
        </mxCell>
        <mxCell id="k5DyvnG_jxrRPJMY_Sv5-31" value="" style="endArrow=classic;html=1;rounded=0;" parent="1" edge="1">
          <mxGeometry width="50" height="50" relative="1" as="geometry">
            <mxPoint x="940" y="520" as="sourcePoint" />
            <mxPoint x="1030" y="520" as="targetPoint" />
          </mxGeometry>
        </mxCell>
        <mxCell id="k5DyvnG_jxrRPJMY_Sv5-32" value="selectFile()" style="text;html=1;align=center;verticalAlign=middle;resizable=0;points=[];autosize=1;strokeColor=none;fillColor=none;" parent="1" vertex="1">
          <mxGeometry x="950" y="480" width="80" height="30" as="geometry" />
        </mxCell>
        <mxCell id="k5DyvnG_jxrRPJMY_Sv5-33" value="Αρχείο" style="ellipse;shape=umlEntity;whiteSpace=wrap;html=1;" parent="1" vertex="1">
          <mxGeometry x="1000" y="355" width="80" height="80" as="geometry" />
        </mxCell>
        <mxCell id="k5DyvnG_jxrRPJMY_Sv5-35" value="" style="html=1;points=[];perimeter=orthogonalPerimeter;outlineConnect=0;targetShapes=umlLifeline;portConstraint=eastwest;newEdgeStyle={&quot;edgeStyle&quot;:&quot;elbowEdgeStyle&quot;,&quot;elbow&quot;:&quot;vertical&quot;,&quot;curved&quot;:0,&quot;rounded&quot;:0};" parent="1" vertex="1">
          <mxGeometry x="1040" y="510" width="10" height="140" as="geometry" />
        </mxCell>
        <mxCell id="k5DyvnG_jxrRPJMY_Sv5-36" value="" style="endArrow=classic;html=1;rounded=0;" parent="1" source="k5DyvnG_jxrRPJMY_Sv5-35" edge="1">
          <mxGeometry width="50" height="50" relative="1" as="geometry">
            <mxPoint x="990" y="570" as="sourcePoint" />
            <mxPoint x="1040" y="520" as="targetPoint" />
          </mxGeometry>
        </mxCell>
        <mxCell id="k5DyvnG_jxrRPJMY_Sv5-38" value="uploadFile()" style="text;html=1;strokeColor=none;fillColor=none;align=center;verticalAlign=middle;whiteSpace=wrap;rounded=0;" parent="1" vertex="1">
          <mxGeometry x="970" y="592.5" width="60" height="35" as="geometry" />
        </mxCell>
        <mxCell id="k5DyvnG_jxrRPJMY_Sv5-39" value="" style="endArrow=classic;html=1;rounded=0;" parent="1" source="k5DyvnG_jxrRPJMY_Sv5-35" edge="1">
          <mxGeometry width="50" height="50" relative="1" as="geometry">
            <mxPoint x="1000" y="570" as="sourcePoint" />
            <mxPoint x="1050" y="520" as="targetPoint" />
          </mxGeometry>
        </mxCell>
        <mxCell id="k5DyvnG_jxrRPJMY_Sv5-40" value="" style="endArrow=classic;html=1;rounded=0;" parent="1" source="k5DyvnG_jxrRPJMY_Sv5-35" edge="1">
          <mxGeometry width="50" height="50" relative="1" as="geometry">
            <mxPoint x="1020" y="620" as="sourcePoint" />
            <mxPoint x="950" y="570" as="targetPoint" />
          </mxGeometry>
        </mxCell>
        <mxCell id="k5DyvnG_jxrRPJMY_Sv5-41" value="checkFileSize()" style="text;html=1;align=center;verticalAlign=middle;resizable=0;points=[];autosize=1;strokeColor=none;fillColor=none;" parent="1" vertex="1">
          <mxGeometry x="940" y="535" width="110" height="30" as="geometry" />
        </mxCell>
        <mxCell id="k5DyvnG_jxrRPJMY_Sv5-42" value="" style="endArrow=classic;html=1;rounded=0;" parent="1" source="k5DyvnG_jxrRPJMY_Sv5-35" edge="1">
          <mxGeometry width="50" height="50" relative="1" as="geometry">
            <mxPoint x="1080" y="860" as="sourcePoint" />
            <mxPoint x="950" y="630" as="targetPoint" />
          </mxGeometry>
        </mxCell>
        <mxCell id="k5DyvnG_jxrRPJMY_Sv5-43" value="" style="html=1;points=[];perimeter=orthogonalPerimeter;outlineConnect=0;targetShapes=umlLifeline;portConstraint=eastwest;newEdgeStyle={&quot;edgeStyle&quot;:&quot;elbowEdgeStyle&quot;,&quot;elbow&quot;:&quot;vertical&quot;,&quot;curved&quot;:0,&quot;rounded&quot;:0};" parent="1" vertex="1">
          <mxGeometry x="1190" y="610" width="10" height="200" as="geometry" />
        </mxCell>
        <mxCell id="k5DyvnG_jxrRPJMY_Sv5-44" value="" style="endArrow=classic;html=1;rounded=0;" parent="1" source="k5DyvnG_jxrRPJMY_Sv5-28" edge="1">
          <mxGeometry width="50" height="50" relative="1" as="geometry">
            <mxPoint x="1000" y="570" as="sourcePoint" />
            <mxPoint x="1180" y="720" as="targetPoint" />
          </mxGeometry>
        </mxCell>
        <mxCell id="k5DyvnG_jxrRPJMY_Sv5-45" value="fillDegree()" style="text;html=1;align=center;verticalAlign=middle;resizable=0;points=[];autosize=1;strokeColor=none;fillColor=none;" parent="1" vertex="1">
          <mxGeometry x="990" y="680" width="80" height="30" as="geometry" />
        </mxCell>
        <mxCell id="k5DyvnG_jxrRPJMY_Sv5-46" value="" style="endArrow=classic;html=1;rounded=0;" parent="1" source="k5DyvnG_jxrRPJMY_Sv5-43" edge="1">
          <mxGeometry width="50" height="50" relative="1" as="geometry">
            <mxPoint x="1240" y="730" as="sourcePoint" />
            <mxPoint x="1360" y="730" as="targetPoint" />
          </mxGeometry>
        </mxCell>
        <mxCell id="k5DyvnG_jxrRPJMY_Sv5-47" value="updateDegree()" style="text;html=1;align=center;verticalAlign=middle;resizable=0;points=[];autosize=1;strokeColor=none;fillColor=none;" parent="1" vertex="1">
          <mxGeometry x="1220" y="690" width="110" height="30" as="geometry" />
        </mxCell>
        <mxCell id="k5DyvnG_jxrRPJMY_Sv5-48" value="Μαθητής" style="ellipse;shape=umlEntity;whiteSpace=wrap;html=1;" parent="1" vertex="1">
          <mxGeometry x="1330" y="600" width="80" height="80" as="geometry" />
        </mxCell>
        <mxCell id="k5DyvnG_jxrRPJMY_Sv5-49" value="" style="html=1;points=[];perimeter=orthogonalPerimeter;outlineConnect=0;targetShapes=umlLifeline;portConstraint=eastwest;newEdgeStyle={&quot;edgeStyle&quot;:&quot;elbowEdgeStyle&quot;,&quot;elbow&quot;:&quot;vertical&quot;,&quot;curved&quot;:0,&quot;rounded&quot;:0};" parent="1" vertex="1">
          <mxGeometry x="1370" y="710" width="10" height="290" as="geometry" />
        </mxCell>
        <mxCell id="k5DyvnG_jxrRPJMY_Sv5-50" value="" style="endArrow=classic;html=1;rounded=0;" parent="1" target="k5DyvnG_jxrRPJMY_Sv5-13" edge="1">
          <mxGeometry width="50" height="50" relative="1" as="geometry">
            <mxPoint x="360" y="300" as="sourcePoint" />
            <mxPoint x="790" y="490" as="targetPoint" />
          </mxGeometry>
        </mxCell>
        <mxCell id="k5DyvnG_jxrRPJMY_Sv5-51" value="display()" style="text;html=1;strokeColor=none;fillColor=none;align=center;verticalAlign=middle;whiteSpace=wrap;rounded=0;" parent="1" vertex="1">
          <mxGeometry x="380" y="260" width="60" height="30" as="geometry" />
        </mxCell>
        <mxCell id="ZeKZ5Fx1t91tmdT_uCV8-1" value="" style="endArrow=classic;html=1;rounded=0;" parent="1" edge="1">
          <mxGeometry width="50" height="50" relative="1" as="geometry">
            <mxPoint x="1180" y="770" as="sourcePoint" />
            <mxPoint x="960" y="770" as="targetPoint" />
          </mxGeometry>
        </mxCell>
        <mxCell id="ZeKZ5Fx1t91tmdT_uCV8-3" value="returnDegree()" style="text;html=1;strokeColor=none;fillColor=none;align=center;verticalAlign=middle;whiteSpace=wrap;rounded=0;" parent="1" vertex="1">
          <mxGeometry x="1015" y="730" width="60" height="30" as="geometry" />
        </mxCell>
        <mxCell id="ZeKZ5Fx1t91tmdT_uCV8-4" value="" style="endArrow=classic;html=1;rounded=0;" parent="1" source="k5DyvnG_jxrRPJMY_Sv5-28" edge="1">
          <mxGeometry width="50" height="50" relative="1" as="geometry">
            <mxPoint x="870" y="600" as="sourcePoint" />
            <mxPoint x="800" y="790" as="targetPoint" />
          </mxGeometry>
        </mxCell>
        <mxCell id="ZeKZ5Fx1t91tmdT_uCV8-5" value="returnToList()" style="text;html=1;align=center;verticalAlign=middle;resizable=0;points=[];autosize=1;strokeColor=none;fillColor=none;" parent="1" vertex="1">
          <mxGeometry x="815" y="758" width="90" height="30" as="geometry" />
        </mxCell>
        <mxCell id="ZeKZ5Fx1t91tmdT_uCV8-6" value="alternative" style="shape=umlFrame;whiteSpace=wrap;html=1;pointerEvents=0;" parent="1" vertex="1">
          <mxGeometry x="765" y="580" width="295" height="80" as="geometry" />
        </mxCell>
        <mxCell id="ZeKZ5Fx1t91tmdT_uCV8-7" value="" style="endArrow=classic;html=1;rounded=0;" parent="1" edge="1">
          <mxGeometry width="50" height="50" relative="1" as="geometry">
            <mxPoint x="920" y="620" as="sourcePoint" />
            <mxPoint x="800" y="620" as="targetPoint" />
          </mxGeometry>
        </mxCell>
        <mxCell id="ZeKZ5Fx1t91tmdT_uCV8-8" value="errorSize()" style="text;html=1;align=center;verticalAlign=middle;resizable=0;points=[];autosize=1;strokeColor=none;fillColor=none;" parent="1" vertex="1">
          <mxGeometry x="835" y="590" width="80" height="30" as="geometry" />
        </mxCell>
        <mxCell id="ZeKZ5Fx1t91tmdT_uCV8-11" value="" style="endArrow=classic;html=1;rounded=0;" parent="1" edge="1">
          <mxGeometry width="50" height="50" relative="1" as="geometry">
            <mxPoint x="110" y="840" as="sourcePoint" />
            <mxPoint x="770" y="840" as="targetPoint" />
          </mxGeometry>
        </mxCell>
        <mxCell id="ZeKZ5Fx1t91tmdT_uCV8-13" value="selectMissingStudent()" style="text;html=1;strokeColor=none;fillColor=none;align=center;verticalAlign=middle;whiteSpace=wrap;rounded=0;" parent="1" vertex="1">
          <mxGeometry x="230" y="800" width="60" height="30" as="geometry" />
        </mxCell>
        <mxCell id="ZeKZ5Fx1t91tmdT_uCV8-14" value="" style="endArrow=classic;html=1;rounded=0;" parent="1" edge="1">
          <mxGeometry width="50" height="50" relative="1" as="geometry">
            <mxPoint x="800" y="930" as="sourcePoint" />
            <mxPoint x="1360" y="930" as="targetPoint" />
          </mxGeometry>
        </mxCell>
        <mxCell id="ZeKZ5Fx1t91tmdT_uCV8-15" value="addStudent()" style="text;html=1;align=center;verticalAlign=middle;resizable=0;points=[];autosize=1;strokeColor=none;fillColor=none;" parent="1" vertex="1">
          <mxGeometry x="880" y="908" width="90" height="30" as="geometry" />
        </mxCell>
        <mxCell id="ZeKZ5Fx1t91tmdT_uCV8-16" value="" style="endArrow=classic;html=1;rounded=0;" parent="1" edge="1">
          <mxGeometry width="50" height="50" relative="1" as="geometry">
            <mxPoint x="1350" y="970" as="sourcePoint" />
            <mxPoint x="800" y="970" as="targetPoint" />
          </mxGeometry>
        </mxCell>
        <mxCell id="ZeKZ5Fx1t91tmdT_uCV8-17" value="returnStudent()" style="text;html=1;align=center;verticalAlign=middle;resizable=0;points=[];autosize=1;strokeColor=none;fillColor=none;" parent="1" vertex="1">
          <mxGeometry x="880" y="940" width="100" height="30" as="geometry" />
        </mxCell>
        <mxCell id="ZeKZ5Fx1t91tmdT_uCV8-18" value="alternative" style="shape=umlFrame;whiteSpace=wrap;html=1;pointerEvents=0;" parent="1" vertex="1">
          <mxGeometry x="50" y="440" width="1360" height="570" as="geometry" />
        </mxCell>
        <mxCell id="WCg6kUV6F2WPvROAODDj-1" value=":Teacher starting screen" style="rounded=0;whiteSpace=wrap;html=1;" parent="1" vertex="1">
          <mxGeometry x="270" y="60" width="120" height="60" as="geometry" />
        </mxCell>
        <mxCell id="WCg6kUV6F2WPvROAODDj-2" value=": List of&amp;nbsp; courses screen" style="rounded=0;whiteSpace=wrap;html=1;" parent="1" vertex="1">
          <mxGeometry x="490" y="60" width="120" height="60" as="geometry" />
        </mxCell>
        <mxCell id="WCg6kUV6F2WPvROAODDj-3" value="&lt;span style=&quot;color: rgb(0, 0, 0); font-family: Helvetica; font-size: 12px; font-style: normal; font-variant-ligatures: normal; font-variant-caps: normal; font-weight: 400; letter-spacing: normal; orphans: 2; text-align: center; text-indent: 0px; text-transform: none; widows: 2; word-spacing: 0px; -webkit-text-stroke-width: 0px; background-color: rgb(251, 251, 251); text-decoration-thickness: initial; text-decoration-style: initial; text-decoration-color: initial; float: none; display: inline !important;&quot;&gt;: List of student&amp;nbsp; screen&lt;/span&gt;" style="rounded=0;whiteSpace=wrap;html=1;" parent="1" vertex="1">
          <mxGeometry x="725" y="60" width="120" height="60" as="geometry" />
        </mxCell>
        <mxCell id="WCg6kUV6F2WPvROAODDj-4" value=": Form screen" style="rounded=0;whiteSpace=wrap;html=1;" parent="1" vertex="1">
          <mxGeometry x="910" y="50" width="120" height="60" as="geometry" />
        </mxCell>
        <mxCell id="WCg6kUV6F2WPvROAODDj-5" value=":Degree" style="rounded=0;whiteSpace=wrap;html=1;" parent="1" vertex="1">
          <mxGeometry x="1090" y="50" width="120" height="60" as="geometry" />
        </mxCell>
        <mxCell id="WCg6kUV6F2WPvROAODDj-6" value=":File" style="rounded=0;whiteSpace=wrap;html=1;" parent="1" vertex="1">
          <mxGeometry x="980" y="280" width="120" height="60" as="geometry" />
        </mxCell>
        <mxCell id="WCg6kUV6F2WPvROAODDj-7" value=":Student" style="rounded=0;whiteSpace=wrap;html=1;" parent="1" vertex="1">
          <mxGeometry x="1280" y="520" width="120" height="60" as="geometry" />
        </mxCell>
      </root>
    </mxGraphModel>
  </diagram>
</mxfile>
